<svg id="Capa_1" enable-background="new 0 0 512 512" height="512" viewBox="0 0 512 512" width="512" xmlns="http://www.w3.org/2000/svg"><g><path d="m15 44.45h482v423.1h-482z" fill="#eaf2f9"/><path d="m256 44.45h241v423.1h-241z" fill="#c6dcf8"/><path d="m372.5 44.45-85.45 103.1h-272.05v-103.1z" fill="#514c7e"/><path d="m372.5 44.45-85.45 103.1h-31.05v-103.1z" fill="#2d2f5c"/><path d="m0 29.45v453.1h512v-453.1zm482 423.1h-452v-393.1h452z" fill="#619ced"/><path d="m121 86.042h30v30.167h-30z" fill="#f5d34f"/><path d="m176.333 86.042h30v30.167h-30z" fill="#fd4b49"/><path d="m512 29.45v453.1h-256v-30h226v-393.1h-226v-30z" fill="#4773cc"/><g><path d="m280.8 232.67v93.5c0 19.26-9.86 36.26-24.8 46.21-8.8 5.87-19.36 9.29-30.7 9.29-30.6 0-55.5-24.9-55.5-55.5v-93.5h30v93.5c0 14.06 11.44 25.5 25.5 25.5s25.5-11.44 25.5-25.5v-93.5z" fill="#514c7e"/><path d="m312.201 232.667h30v148.333h-30z" fill="#2d2f5c"/></g><path d="m280.8 232.67v93.5c0 19.26-9.86 36.26-24.8 46.21v-139.71z" fill="#2d2f5c"/><path d="m65.667 86.042h30v30.167h-30z" fill="#9fb615"/></g></svg>